<svg width="48" height="48" viewBox="0 0 48 48" fill="none" xmlns="http://www.w3.org/2000/svg">
<path opacity="0.402062" d="M38.4148 33.2249H8.10716V43.2071H38.4148V33.2249Z" fill="url(#paint0_linear_1_121)"/>
<path opacity="0.402062" d="M38.4148 33.2253V43.2069C41.6472 43.2257 46.2291 40.9705 46.2291 38.2154C46.2291 35.4604 42.622 33.2253 38.4148 33.2253Z" fill="url(#paint1_radial_1_121)"/>
<path opacity="0.402062" d="M8.10717 33.2253V43.2069C4.8748 43.2257 0.292892 40.9705 0.292892 38.2154C0.292892 35.4604 3.89996 33.2253 8.10717 33.2253Z" fill="url(#paint2_radial_1_121)"/>
<path d="M4.47258 38.6656C4.4944 39.0828 4.93296 39.5 5.3497 39.5H36.7093C37.126 39.5 37.521 39.0828 37.4991 38.6656L36.5617 11.3824C36.5399 10.9652 36.1013 10.548 35.6846 10.548H22.3999C21.9144 10.548 21.1642 10.2318 20.9968 9.43912L20.3848 6.54004C20.2292 5.80284 19.5017 5.5 19.0849 5.5H4.29071C3.87396 5.5 3.47905 5.91717 3.50086 6.33434L4.47258 38.6656Z" fill="url(#paint3_radial_1_121)" stroke="url(#paint4_linear_1_121)" stroke-linecap="round" stroke-linejoin="round"/>
<g opacity="0.113636">
<path d="M5.04216 18.5625H35.4891Z" fill="#729FCF"/>
<path d="M5.04216 18.5625H35.4891" stroke="black" stroke-linecap="round" stroke-linejoin="round"/>
</g>
<g opacity="0.113636">
<path d="M4.98068 12.5625H35.488Z" fill="#729FCF"/>
<path d="M4.98068 12.5625H35.488" stroke="black" stroke-linecap="round" stroke-linejoin="round"/>
</g>
<g opacity="0.113636">
<path d="M5.22659 22.5625H35.4922Z" fill="#729FCF"/>
<path d="M5.22659 22.5625H35.4922" stroke="black" stroke-linecap="round" stroke-linejoin="round"/>
</g>
<g opacity="0.113636">
<path d="M5.38615 32.5625H35.4949Z" fill="#729FCF"/>
<path d="M5.38615 32.5625H35.4949" stroke="black" stroke-linecap="round" stroke-linejoin="round"/>
</g>
<g opacity="0.113636">
<path d="M5.50914 34.5625H35.4969Z" fill="#729FCF"/>
<path d="M5.50914 34.5625H35.4969" stroke="black" stroke-linecap="round" stroke-linejoin="round"/>
</g>
<g opacity="0.113636">
<path d="M5.04216 16.5625H35.4891Z" fill="#729FCF"/>
<path d="M5.04216 16.5625H35.4891" stroke="black" stroke-linecap="round" stroke-linejoin="round"/>
</g>
<g opacity="0.113636">
<path d="M5.19585 20.5625H35.4916Z" fill="#729FCF"/>
<path d="M5.19585 20.5625H35.4916" stroke="black" stroke-linecap="round" stroke-linejoin="round"/>
</g>
<g opacity="0.113636">
<path d="M5.01143 14.5625H35.4886Z" fill="#729FCF"/>
<path d="M5.01143 14.5625H35.4886" stroke="black" stroke-linecap="round" stroke-linejoin="round"/>
</g>
<path d="M36.0709 11.3148C36.0709 11.2137 35.924 11.0578 35.8127 11.0577L22.25 11.0555C22.25 11.0555 23.2309 11.6675 24.5741 11.6761L36.082 11.75C36.082 11.5296 36.0709 11.4835 36.0709 11.3148Z" fill="white" fill-opacity="0.508475"/>
<g opacity="0.113636">
<path d="M5.22659 24.5625H35.4922Z" fill="#729FCF"/>
<path d="M5.22659 24.5625H35.4922" stroke="black" stroke-linecap="round" stroke-linejoin="round"/>
</g>
<g opacity="0.113636">
<path d="M5.32466 30.5625H35.4939Z" fill="#729FCF"/>
<path d="M5.32466 30.5625H35.4939" stroke="black" stroke-linecap="round" stroke-linejoin="round"/>
</g>
<g opacity="0.113636">
<path d="M5.32466 28.5625H35.4939Z" fill="#729FCF"/>
<path d="M5.32466 28.5625H35.4939" stroke="black" stroke-linecap="round" stroke-linejoin="round"/>
</g>
<g opacity="0.113636">
<path d="M5.50914 36.5625H35.4969Z" fill="#729FCF"/>
<path d="M5.50914 36.5625H35.4969" stroke="black" stroke-linecap="round" stroke-linejoin="round"/>
</g>
<path opacity="0.451429" d="M6.06834 38.864C6.08468 39.1762 5.88743 39.3844 5.56975 39.2803C5.25207 39.1763 5.03302 38.9681 5.01667 38.6559L4.06895 6.59138C4.05261 6.27916 4.23414 6.09061 4.54636 6.09061L18.9684 6.04292C19.2806 6.04292 19.9004 6.34339 20.1014 7.3651L20.6748 10.1806C20.2478 9.71538 20.2556 9.70102 20.0373 9.02393L19.6312 7.76475C19.4121 7.0371 18.933 6.93285 18.6208 6.93285H5.73298C5.42075 6.93285 5.2235 7.141 5.23985 7.45324L6.17786 38.9681L6.06834 38.864Z" fill="url(#paint5_linear_1_121)"/>
<g opacity="0.113636">
<path d="M5.28806 26.5625H35.4932Z" fill="#729FCF"/>
<path d="M5.28806 26.5625H35.4932" stroke="black" stroke-linecap="round" stroke-linejoin="round"/>
</g>
<g opacity="0.113636">
<path d="M4.87375 8.5625H19.6575Z" fill="#729FCF"/>
<path d="M4.87375 8.5625H19.6575" stroke="black" stroke-linecap="round" stroke-linejoin="round"/>
</g>
<g opacity="0.113636">
<path d="M4.92209 10.5625H20.2029Z" fill="#729FCF"/>
<path d="M4.92209 10.5625H20.2029" stroke="black" stroke-linecap="round" stroke-linejoin="round"/>
</g>
<path d="M39.8064 39.4973C40.9424 39.4534 41.7559 38.4033 41.8393 37.1812C42.6256 25.6568 43.4872 15.9939 43.4872 15.9939C43.5588 15.747 43.3204 15.5 43.0104 15.5H8.87666L7.03913 37.3209C6.92536 38.3009 6.57634 39.1218 5.5 39.5L39.8064 39.4973Z" fill="url(#paint6_linear_1_121)" stroke="#3465A4" stroke-linejoin="round"/>
<path opacity="0.465909" fill-rule="evenodd" clip-rule="evenodd" d="M9.85149 16.4991L42.416 16.5638L40.8529 36.5237C40.7691 37.5929 40.4053 37.9489 38.9931 37.9489C37.1346 37.9489 10.5133 37.9166 7.81531 37.9166C8.04729 37.5964 8.14676 36.93 8.14809 36.9141L9.85149 16.4991Z" stroke="url(#paint7_linear_1_121)" stroke-linecap="round"/>
<path fill-rule="evenodd" clip-rule="evenodd" d="M9.85149 16.2589L8.6929 31.8692C8.6929 31.8692 16.9317 27.7299 27.2303 27.7299C37.5288 27.7299 42.6781 16.2589 42.6781 16.2589H9.85149Z" fill="white" fill-opacity="0.0892857"/>
<path fill-rule="evenodd" clip-rule="evenodd" d="M23.1894 21.0053C19.9074 21.2475 17.1697 23.9085 17.0075 27.1137C16.8374 30.4764 19.5763 33.2474 23.0704 33.2474C24.7834 33.2474 26.3796 32.5967 27.5821 31.5238C27.6439 31.6973 27.7523 31.8639 27.8737 32.0054C27.9844 32.1292 28.126 32.2488 28.2784 32.3349L32.369 34.7681C33.1456 35.23 34.1959 34.9804 34.7148 34.2105C35.2337 33.4406 35.0248 32.442 34.2483 31.9801L30.1576 29.5469C29.8813 29.3762 29.5556 29.2825 29.2224 29.2934C29.525 28.6184 29.6891 27.8755 29.7277 27.1137C29.8978 23.7509 27.1839 21.0053 23.6898 21.0053C23.526 21.0053 23.3508 20.9934 23.1894 21.0053ZM23.4087 23.4385C23.4581 23.4367 23.5169 23.4385 23.5667 23.4385C25.6929 23.4385 27.303 25.0674 27.1995 27.1137C27.0959 29.1599 25.321 30.7888 23.1948 30.7888C21.0686 30.7888 19.4586 29.1599 19.5621 27.1137C19.6632 25.1153 21.3491 23.5124 23.4087 23.4385Z" fill="url(#paint8_linear_1_121)"/>
<defs>
<linearGradient id="paint0_linear_1_121" x1="19.5846" y1="33.2249" x2="19.5846" y2="43.2071" gradientUnits="userSpaceOnUse">
<stop stop-opacity="0"/>
<stop offset="0.5"/>
<stop offset="1" stop-opacity="0"/>
</linearGradient>
<radialGradient id="paint1_radial_1_121" cx="0" cy="0" r="1" gradientUnits="userSpaceOnUse" gradientTransform="translate(38.6065 38.1573) scale(7.35274 4.81492)">
<stop/>
<stop offset="1" stop-opacity="0"/>
</radialGradient>
<radialGradient id="paint2_radial_1_121" cx="0" cy="0" r="1" gradientUnits="userSpaceOnUse" gradientTransform="translate(7.91549 38.1573) rotate(180) scale(7.35274 4.81492)">
<stop/>
<stop offset="1" stop-opacity="0"/>
</radialGradient>
<radialGradient id="paint3_radial_1_121" cx="0" cy="0" r="1" gradientUnits="userSpaceOnUse" gradientTransform="translate(24.9122 36.9645) rotate(0.821895) scale(32.6734 38.6939)">
<stop stop-color="#202020"/>
<stop offset="1" stop-color="#B9B9B9"/>
</radialGradient>
<linearGradient id="paint4_linear_1_121" x1="18.0776" y1="31.3308" x2="15.4718" y2="6.09155" gradientUnits="userSpaceOnUse">
<stop stop-color="#424242"/>
<stop offset="1" stop-color="#777777"/>
</linearGradient>
<linearGradient id="paint5_linear_1_121" x1="8.57005" y1="8.44663" x2="9.79018" y2="46.2061" gradientUnits="userSpaceOnUse">
<stop stop-color="white" stop-opacity="0.876289"/>
<stop offset="1" stop-color="#FFFFFE" stop-opacity="0"/>
</linearGradient>
<linearGradient id="paint6_linear_1_121" x1="28.3411" y1="39.999" x2="28.8568" y2="17.5212" gradientUnits="userSpaceOnUse">
<stop stop-color="#6194CB"/>
<stop offset="0.184111" stop-color="#6194CB"/>
<stop offset="1" stop-color="#729FCF"/>
</linearGradient>
<linearGradient id="paint7_linear_1_121" x1="16.4799" y1="25.2817" x2="16.3877" y2="36.7859" gradientUnits="userSpaceOnUse">
<stop stop-color="white"/>
<stop offset="1" stop-color="white" stop-opacity="0"/>
</linearGradient>
<linearGradient id="paint8_linear_1_121" x1="-6.71088" y1="28" x2="-6.3624" y2="41.6608" gradientUnits="userSpaceOnUse">
<stop stop-color="white"/>
<stop offset="1" stop-color="white" stop-opacity="0"/>
</linearGradient>
</defs>
</svg>
